<svg width="1310" height="1310" viewBox="0 0 1310 1310" fill="none" xmlns="http://www.w3.org/2000/svg">
<path d="M432.964 905.756L545.507 742.993C572.218 738.318 606.582 742.133 648.135 766.475C715.148 805.755 757.609 787.055 780.548 766.421L876.944 905.81C879.507 909.517 879.759 913.762 877.642 917.792C875.53 921.822 871.909 924.025 867.33 924.025H442.524C437.994 924.025 434.324 921.822 432.207 917.792C430.149 913.762 430.396 909.517 432.964 905.756Z" fill="white"/>
<path d="M927.575 932.032C925.265 945.466 908.392 954.278 884.265 959.974C879.859 961.049 875.238 961.962 870.401 962.822C794.259 976.094 669.272 965.724 669.272 965.724L654.924 965.132L397.104 954.439C397.104 954.439 340.521 914.837 466.369 778.243C466.369 778.243 469.27 774.374 474.966 768.946C476.954 767.012 479.319 764.916 482.006 762.767C489.743 756.426 500.275 749.387 513.602 743.96L404.574 901.564C398.448 910.484 397.749 921.5 402.8 931.065C407.797 940.63 417.255 946.379 428.056 946.379H881.793C892.648 946.379 902.105 940.63 907.102 931.065C912.1 921.5 911.455 910.484 905.275 901.618L800.492 749.978C808.391 740.413 812.045 732.675 812.045 732.675C812.045 732.675 816.613 737.995 823.974 746.969C828.542 752.503 834.13 759.489 840.364 767.496C876.635 813.869 934.077 894.525 927.575 932.032Z" fill="white"/>
<path d="M654.922 946.379V985.068H428.053C422.465 985.068 416.984 984.37 411.772 983.08C393.394 978.513 377.596 966.315 368.515 949.012C356.855 926.766 358.52 900.167 372.76 879.586L453.363 762.982L476.63 729.397L505.539 687.592L530.795 651.052C535.953 643.529 540.574 635.738 544.551 627.624C556.749 602.852 563.089 575.608 563.089 547.559V363.462H546.539V324.773H601.779V547.559C601.779 592.642 588.237 636.06 562.606 673.083L513.599 743.96L404.571 901.564C398.446 910.484 397.747 921.5 402.798 931.065C407.795 940.63 417.253 946.379 428.053 946.379H654.922" fill="white"/>
<path d="M332.941 1180.23C328.213 1177.39 323.538 1174.43 318.863 1171.37L313.973 1168.2H308.223V1187.59L297.691 1203.77C302.151 1206.67 306.611 1209.52 311.125 1212.31C414.296 1276.15 532.835 1309.84 654.921 1309.84V1271.15C540.627 1271.15 429.664 1239.77 332.941 1180.23ZM239.067 1109.52C111.5 992.86 38.6891 828.109 38.6891 654.867C38.6891 647.398 38.8503 639.929 39.1727 632.083C39.2264 627.946 39.4414 623.862 39.7638 619.079C39.8176 617.091 39.9786 615.103 40.1398 613.008C40.2473 610.751 40.4085 608.548 40.6772 605.861C40.9458 601.777 41.322 597.693 41.8057 593.341C42.2355 588.397 42.7192 583.507 43.4177 578.241C44.1163 572.491 44.9223 566.688 45.8358 560.777C46.5881 555.672 47.5017 550.621 48.3614 545.624C49.1674 541.056 50.0808 536.489 51.1555 531.438C51.6928 528.375 52.3377 525.258 53.0362 522.249L53.2511 521.282C53.8422 518.541 54.4333 515.747 55.1318 513.114L55.4005 512.039C55.7229 510.535 56.099 509.084 56.4752 507.634L56.6365 506.881C56.9052 505.645 57.2277 504.409 57.4964 503.227C57.765 502.152 58.0873 501.024 58.4635 499.788L58.7322 498.713C59.0008 497.37 59.3769 496.08 59.7531 494.683C60.1829 493.179 60.6128 491.674 61.0427 490.17C61.6337 487.913 62.2248 485.71 62.9234 483.453C63.5682 480.981 64.3205 478.509 65.1266 475.93C65.7714 473.888 66.3625 471.846 67.0611 469.804L67.9209 468.138L68.4044 462.765L52.9824 462.389L32.402 452.071C31.811 453.2 31.3272 454.382 30.9511 455.618L29.7153 458.197V459.541C29.1242 461.314 28.6407 463.034 28.157 464.646C27.6734 466.15 27.1898 467.601 26.8137 469.106H26.7599C25.6852 472.759 24.6642 476.306 23.8045 479.637C22.7835 482.969 21.87 486.301 21.1177 489.686C20.258 492.588 19.5595 495.435 19.0221 497.907C18.5385 499.788 18.0548 501.669 17.6249 503.603C16.8189 506.72 16.1203 509.998 15.368 513.437C14.5082 517.091 13.7559 520.798 13.2186 523.915C12.1439 528.751 11.1767 533.802 10.2632 538.8C9.34967 544.12 8.48991 549.493 7.57641 555.027C6.60918 561.207 5.74958 567.548 5.05103 573.459C4.29874 578.94 3.76123 584.421 3.27762 589.472C2.79401 593.985 2.36428 598.553 2.09561 602.637C1.82693 605.27 1.66568 607.903 1.50447 610.428C1.34327 612.793 1.18196 615.318 1.12822 617.091C0.805814 621.82 0.537297 626.603 0.483562 630.955C0.161152 638.908 0 646.861 0 654.867C0 839.554 77.9155 1015.21 214.241 1139.23C218.164 1142.83 222.086 1146.33 226.116 1149.82L251.479 1120.53C247.288 1116.88 243.15 1113.23 239.067 1109.52V1109.52ZM226.224 159.753L221.549 163.945C219.614 165.557 217.788 167.223 215.907 169.05L215.853 169.104C212.629 171.844 209.244 174.961 205.482 178.668C204.945 179.098 204.408 179.582 203.87 180.119C203.333 180.657 202.795 181.194 202.204 181.785C200.861 183.021 199.571 184.203 198.335 185.439C197.046 186.675 195.756 187.964 194.467 189.2L192.102 191.511C190.974 192.585 189.899 193.714 188.878 194.735C187.857 195.809 186.89 196.777 186.084 197.69C185.976 197.744 185.923 197.852 185.815 197.905V197.959C185.224 198.604 184.579 199.195 183.988 199.84C183.182 200.592 182.484 201.344 181.785 202.043C181.355 202.473 180.925 202.956 180.549 203.386C179.69 204.246 178.884 205.106 178.131 205.966C172.919 211.393 167.76 217.142 162.87 222.731C159.001 227.083 155.294 231.489 151.908 235.573C147.878 240.248 144.009 245.084 140.57 249.544C137.346 253.628 134.176 257.658 131.221 261.635C126.492 267.868 121.924 274.209 117.572 280.388C115.476 283.344 113.488 286.353 111.446 289.308L109.351 292.425C105.858 297.637 102.472 302.903 99.5707 307.686C97.9586 310.157 96.4541 312.629 95.0032 315.155C94.036 316.66 93.0687 318.218 92.2089 319.776C90.7581 322.14 89.3074 324.612 88.1253 326.708C87.373 327.944 86.6206 329.234 85.9221 330.469C84.525 332.887 83.1279 335.305 81.892 337.616C81.7845 337.831 81.677 337.992 81.5695 338.207C80.9247 339.389 80.2799 340.518 79.6888 341.646C79.1514 342.667 78.5603 343.688 78.0229 344.709C76.0885 348.309 74.1541 352.017 72.1659 355.778L71.0374 358.035C71.0374 358.035 71.0373 357.982 70.9836 358.035C70.6075 358.841 70.1777 359.701 69.7478 360.507H68.7269L63.9446 372.383L63.2996 373.834L81.247 381.034L81.7844 381.249V381.356L81.892 399.196L94.4659 399.626L99.2482 388.342L99.4631 387.805L100.108 386.568C102.204 382.162 104.353 377.81 106.61 373.403C106.771 373.081 106.932 372.705 107.147 372.383C107.524 371.63 107.9 370.931 108.276 370.179C110.049 366.901 111.876 363.516 113.81 359.97C116.175 355.402 118.808 350.835 121.602 346.106C122.784 343.957 124.074 341.807 125.31 339.765L125.793 338.906C126.492 337.724 127.19 336.595 127.943 335.413L128.426 334.607C129.501 332.673 130.683 330.792 132.295 328.32C135.251 323.43 138.314 318.701 141.43 314.08L143.526 310.964C145.353 308.277 147.18 305.59 149.168 302.742C153.359 296.777 157.658 290.867 162.172 284.902C163.569 282.968 164.966 281.141 166.471 279.206C167.922 277.325 169.426 275.391 171.092 273.349C174.316 269.104 177.701 264.913 181.57 260.399C184.902 256.369 188.287 252.392 191.941 248.309C196.508 243.043 201.291 237.723 206.396 232.349C207.524 231.167 208.653 229.931 209.781 228.749C211.071 227.46 212.468 226.062 213.972 224.504C215.316 223.053 216.713 221.656 218.164 220.152C218.647 219.668 219.185 219.131 219.722 218.593L221.549 216.82C223.967 214.456 226.331 212.091 228.803 209.888L230.039 208.652C230.361 208.33 230.63 208.007 230.953 207.739L232.027 206.772C234.015 204.837 236.004 202.903 238.099 201.076C239.228 200.055 240.356 199.088 241.485 198.12L242.667 196.992C243.903 195.756 245.138 194.628 246.428 193.553L252.285 188.341L226.224 159.753ZM310.05 98.1735C305.967 100.699 301.936 103.224 297.96 105.857L319.078 138.26C324.29 134.874 329.503 131.542 334.769 128.372C430.954 69.6398 541.218 38.6888 654.921 38.6888V-0.000316574C532.298 -0.000316574 413.329 33.9603 310.05 98.1735Z" fill="white"/>
<path d="M476.633 729.396C471.153 727.946 465.672 726.334 460.244 724.722C390.711 703.819 325.961 670.987 267.551 626.924C206.615 580.981 155.46 525.097 115.427 460.776C112.687 456.37 110 451.91 107.367 447.45L74.0514 467.063C76.8993 471.953 79.8547 476.789 82.8639 481.571C125.368 549.815 179.641 609.03 244.23 657.768C303.07 702.153 367.766 735.791 437.192 758.038C442.565 759.811 447.939 761.476 453.366 762.981C460.513 765.13 467.713 767.119 474.968 768.946C476.687 769.429 478.407 769.859 480.126 770.289L482.007 762.766L489.422 732.728C485.123 731.653 480.879 730.579 476.633 729.396ZM226.229 159.753L221.554 163.944C219.619 165.556 217.792 167.222 215.912 169.049L215.858 169.103C212.634 171.843 209.248 174.96 205.487 178.668C204.95 179.098 204.412 179.581 203.875 180.119C203.338 180.656 202.8 181.193 202.209 181.784C200.866 183.02 199.576 184.202 198.34 185.438C197.05 186.674 195.761 187.964 194.471 189.2L192.107 191.51C190.979 192.585 189.904 193.713 188.883 194.734C187.808 195.809 186.787 196.83 185.82 197.905V197.958C184.369 199.355 183.08 200.699 181.79 202.042C181.36 202.472 180.93 202.956 180.554 203.386C179.694 204.246 178.888 205.105 178.136 205.965C172.924 211.392 167.765 217.142 162.875 222.73C159.006 227.083 155.299 231.489 151.913 235.573C147.883 240.248 144.014 245.084 140.575 249.544C137.351 253.628 134.181 257.658 131.225 261.634C126.497 267.867 121.929 274.208 117.577 280.388C115.481 283.343 113.493 286.352 111.451 289.308L109.355 292.425C105.863 297.637 102.477 302.903 99.5755 307.685C97.9634 310.157 96.4588 312.629 95.008 315.154C94.0408 316.659 93.0734 318.217 92.2137 319.775C90.7628 322.14 89.3122 324.612 88.13 326.707C87.3778 327.943 86.6254 329.233 85.9269 330.469C84.5297 332.887 83.1326 335.305 81.8967 337.615C81.7893 337.83 81.6817 337.991 81.5743 338.206C80.9295 339.389 80.2846 340.517 79.6936 341.646C79.1562 342.667 78.5651 343.688 78.0277 344.709C76.0933 348.309 74.1589 352.016 72.1707 355.778L71.0422 358.035C69.1077 361.796 67.227 365.611 65.4 369.48C65.0776 370.125 64.7554 370.77 64.4867 371.415C64.3792 371.576 64.2717 371.737 64.218 371.898V371.952C64.1643 372.06 64.1104 372.221 64.0566 372.328L68.463 374.209L81.2518 381.033L81.7892 381.356L97.8558 390.974C98.1245 390.491 98.3932 390.007 98.6619 389.523L99.253 388.341L99.4679 387.804L100.113 386.568C102.208 382.161 104.358 377.809 106.615 373.403C106.776 373.08 106.937 372.704 107.152 372.382C107.528 371.63 107.904 370.931 108.281 370.179C110.054 366.901 111.881 363.515 113.815 359.969C116.18 355.402 118.813 350.834 121.607 346.105C122.789 343.956 124.079 341.807 125.314 339.765L125.798 338.905C126.497 337.723 127.195 336.595 127.947 335.413L128.431 334.607C129.506 332.672 130.688 330.791 132.3 328.319C135.255 323.43 138.318 318.701 141.435 314.08L143.531 310.963C145.358 308.276 147.184 305.589 149.173 302.741C153.364 296.777 157.663 290.866 162.177 284.902C163.574 282.967 164.971 281.14 166.475 279.206C167.926 277.325 169.431 275.391 171.097 273.349C174.321 269.104 177.706 264.912 181.575 260.398C184.907 256.368 188.292 252.392 191.946 248.308C196.513 243.042 201.296 237.722 206.4 232.349C207.529 231.166 208.657 229.931 209.786 228.749C211.075 227.459 212.472 226.062 213.977 224.503C215.32 223.053 216.718 221.656 218.169 220.151C218.652 219.668 219.189 219.13 219.727 218.593L221.554 216.819C223.972 214.455 226.336 212.091 228.808 209.887L230.044 208.652C230.366 208.329 230.635 208.007 230.957 207.738L232.032 206.771C234.02 204.836 236.008 202.902 238.104 201.075C239.232 200.054 240.361 199.087 241.489 198.12L242.671 196.991C243.907 195.755 245.143 194.627 246.433 193.552L252.29 188.34L226.229 159.753ZM310.055 98.1729C305.971 100.698 301.941 103.224 297.965 105.857L319.083 138.259C324.295 134.874 329.507 131.542 334.773 128.372C430.959 69.6392 541.223 38.6882 654.926 38.6882V-0.000896391C532.303 -0.000896391 413.334 33.9597 310.055 98.1729Z" fill="white"/>
<path d="M319.097 1149.87L293.75 1120.64C347.823 1073.73 392.907 1018.44 427.743 956.266L461.5 975.181C424.471 1041.28 376.561 1100.06 319.097 1149.87" fill="white"/>
<path d="M543.862 695.33L505.254 692.751C506.049 680.661 506.452 667.925 506.452 654.868C506.452 478.08 430.294 309.513 297.504 192.425L323.087 163.408C464.206 287.804 545.141 466.957 545.141 654.868C545.141 668.785 544.711 682.38 543.862 695.33Z" fill="white"/>
<path d="M94.4508 399.627L81.8661 399.197L81.791 381.25L63.3008 373.834L63.9457 372.383L68.7173 360.508H69.7542C70.5549 358.949 71.3664 357.337 72.1886 355.779C74.5905 350.997 77.1322 346.214 79.835 341.432C82.2101 336.864 85.1602 331.706 88.1157 326.709C89.3086 324.613 90.7432 322.141 92.1833 319.777C93.0807 318.165 94.0209 316.66 94.9881 315.156C96.4336 312.63 97.965 310.158 99.5771 307.686C102.463 302.904 105.875 297.638 109.368 292.426L111.463 289.309C113.478 286.353 115.494 283.344 117.595 280.389C121.947 274.156 126.498 267.869 131.216 261.635C134.188 257.659 137.342 253.575 140.582 249.545C143.994 245.085 147.906 240.249 151.926 235.574C155.268 231.49 159.003 227.084 162.893 222.732C167.767 217.143 172.925 211.393 178.148 205.966C180.523 203.333 183.264 200.539 186.09 197.691C187.74 195.917 189.922 193.714 192.103 191.511L194.468 189.201C197.026 186.675 199.594 184.15 202.206 181.785C203.307 180.603 204.36 179.582 205.462 178.615C209.223 174.961 212.641 171.845 215.86 169.104C217.724 167.223 219.599 165.557 221.545 163.945L226.225 159.754L252.281 188.341L246.446 193.554C245.145 194.628 243.904 195.756 242.657 196.992L241.464 198.121C238.251 200.808 235.113 203.763 232.034 206.772L230.937 207.739C230.626 208.008 230.352 208.33 230.04 208.653L228.81 209.889C226.354 212.092 223.952 214.456 221.55 216.821L219.728 218.594C217.611 220.743 215.752 222.57 213.947 224.505C211.061 227.46 208.691 229.878 206.408 232.35C201.281 237.723 196.531 242.989 191.921 248.309C188.272 252.393 184.887 256.369 181.571 260.399C177.724 264.913 174.323 269.105 171.072 273.35C167.842 277.38 164.962 281.087 162.157 284.849C157.632 290.867 153.366 296.778 149.175 302.742C147.165 305.59 145.359 308.278 143.538 310.964L141.431 314.081C138.331 318.702 135.241 323.431 132.302 328.321C130.701 330.792 129.518 332.673 128.406 334.608L127.939 335.414C127.202 336.596 126.472 337.724 125.811 338.906L125.316 339.766C124.054 341.808 122.796 343.957 121.598 346.053C118.814 350.836 116.187 355.403 113.79 359.97C111.055 364.806 108.798 369.105 106.611 373.404C104.338 377.81 102.189 382.163 100.12 386.569L99.4535 387.805L94.4508 399.627" fill="white"/>
<path d="M226.122 1149.82C82.4184 1025.26 0 844.875 0 654.868C0 646.862 0.155642 638.909 0.478052 630.956C0.547907 626.604 0.795203 621.821 1.13373 617.092C1.17672 615.265 1.34865 612.793 1.51523 610.375C1.67643 607.903 1.8483 605.271 2.10086 602.638C2.38565 598.554 2.79402 593.986 3.28838 589.473C3.73975 584.368 4.30948 578.941 5.04027 573.46C5.73345 567.549 6.61469 561.208 7.58192 555.028C8.35033 549.655 9.31744 544.174 10.2847 538.801C11.1713 533.803 12.1494 528.752 13.2026 523.862C13.756 520.799 14.5137 517.092 15.3627 513.438C16.0935 509.999 16.8027 506.721 17.6194 503.604C18.0386 501.67 18.5224 499.789 19.0113 497.908C19.5487 495.436 20.2794 492.589 21.107 489.687C21.8754 486.302 22.7941 482.97 23.799 479.638C25.0241 474.963 26.4966 469.805 28.1463 464.647C28.6138 463.035 29.1348 461.315 29.7098 459.542V458.198L30.9511 455.619C31.3326 454.383 31.8057 453.201 32.3753 452.072L52.9772 462.39L68.3989 462.766L67.9046 468.139L67.0663 469.805C66.3516 471.847 65.7499 473.889 65.1373 475.931C63.5629 480.928 62.2625 485.496 61.0266 490.171C60.054 493.395 59.3177 496.081 58.7159 498.714L58.4472 499.789C57.7755 502.153 57.1738 504.464 56.6418 506.882L56.4484 507.635C56.0776 509.085 55.7015 510.536 55.3845 512.04L55.1318 513.115C54.4171 515.748 53.8314 518.542 53.2511 521.283L53.0362 522.25C52.3376 525.259 51.7037 528.322 51.1395 531.439C50.0594 536.49 49.1833 541.057 48.3719 545.625C47.4745 550.622 46.5827 555.62 45.8465 560.778C44.9169 566.689 44.1 572.492 43.4337 578.242C42.7352 583.508 42.2246 588.398 41.7894 593.342C41.3111 597.694 40.9406 601.778 40.6504 605.862C40.3979 608.549 40.2582 610.752 40.1238 613.008C39.968 615.104 39.8283 617.092 39.7638 619.08C39.4414 623.863 39.2209 627.947 39.1457 632.084C38.8394 639.93 38.6891 647.399 38.6891 654.868C38.6891 833.644 116.245 1003.39 251.458 1120.53L226.122 1149.82" fill="white"/>
<path d="M272.594 1186.84C259.268 1186.84 248.414 1175.99 248.414 1162.66C248.414 1149.34 259.268 1138.48 272.594 1138.48C285.921 1138.48 296.775 1149.34 296.775 1162.66C296.775 1175.99 285.921 1186.84 272.594 1186.84ZM330.951 1139.34C326.007 1126.98 317.302 1116.56 306.179 1109.57C296.453 1103.34 284.953 1099.79 272.594 1099.79C260.235 1099.79 248.736 1103.34 239.064 1109.52C227.995 1116.5 219.236 1126.93 214.238 1139.23C211.337 1146.49 209.725 1154.39 209.725 1162.66C209.725 1197.32 237.935 1225.53 272.594 1225.53C287.103 1225.53 300.483 1220.59 311.122 1212.31C321.44 1204.31 329.231 1193.07 332.939 1180.23C334.604 1174.64 335.464 1168.79 335.464 1162.66C335.464 1154.39 333.852 1146.54 330.951 1139.34" fill="white"/>
<path d="M66.9558 396.565C80.282 396.565 91.1365 407.419 91.1365 420.745C91.1365 434.072 80.282 444.926 66.9558 444.926C53.6295 444.926 42.7751 434.072 42.7751 420.745C42.7751 407.419 53.6295 396.565 66.9558 396.565ZM107.15 372.384C97.2087 364.163 84.6884 358.896 71.0397 358.037C71.0397 358.037 71.0396 357.983 70.9859 358.037C69.6425 357.929 68.2992 357.876 66.9558 357.876C32.2968 357.876 4.08594 386.086 4.08594 420.745C4.08594 440.144 12.8986 457.5 26.7622 469.107H26.816C36.7569 477.382 49.277 482.594 62.9257 483.454C64.269 483.562 65.6124 483.615 66.9558 483.615C72.4367 483.615 77.7566 482.917 82.8614 481.573C95.8115 478.188 107.096 470.773 115.425 460.778C124.399 449.87 129.826 435.899 129.826 420.745C129.826 401.347 121.013 383.991 107.15 372.384" fill="white"/>
<path d="M276.143 175.231C262.817 175.231 251.963 164.376 251.963 151.05C251.963 137.724 262.817 126.869 276.143 126.869C289.47 126.869 300.324 137.724 300.324 151.05C300.324 164.376 289.47 175.231 276.143 175.231ZM334.768 128.374C329.932 115.854 321.173 105.322 310.05 98.1752C300.27 91.8345 288.664 88.1802 276.143 88.1802C241.484 88.1802 213.273 116.391 213.273 151.05C213.273 157.283 214.187 163.355 215.906 169.051C219.775 181.948 227.674 193.125 238.099 201.078C248.685 209.138 261.85 213.92 276.143 213.92C288.664 213.92 300.378 210.266 310.157 203.871C321.173 196.778 329.878 186.3 334.714 173.887C337.509 166.794 339.013 159.11 339.013 151.05C339.013 143.044 337.509 135.413 334.768 128.374" fill="white"/>
<path d="M941.387 949.012C932.305 966.315 916.507 978.513 898.076 983.08C892.864 984.37 887.383 985.068 881.795 985.068H654.926V946.379H881.795C892.649 946.379 902.106 940.63 907.104 931.065C912.101 921.5 911.456 910.484 905.277 901.618L800.494 749.978L747.296 673.083C721.664 636.06 708.123 592.642 708.123 547.559V324.773H763.363V363.462H746.812V547.559C746.812 575.608 753.153 602.852 765.351 627.624C769.274 635.738 773.895 643.529 779.107 651.052L804.309 687.538L833.272 729.397L856.539 762.982L937.142 879.586C951.381 900.167 952.993 926.766 941.387 949.012Z" fill="white"/>
<path d="M1001.62 1187.59V1168.2H995.82L991.038 1171.37C986.363 1174.43 981.688 1177.39 976.959 1180.23C880.236 1239.77 769.274 1271.15 654.926 1271.15V1309.84C777.065 1309.84 895.551 1276.15 998.722 1212.26C1003.24 1209.52 1007.7 1206.67 1012.16 1203.77L1001.62 1187.59ZM1309.42 631.385C1309.31 626.603 1309.09 621.82 1308.77 617.736C1308.72 615.264 1308.5 612.793 1308.4 610.589C1308.18 607.903 1308.02 605.269 1307.8 603.12C1307.48 598.553 1307.11 593.986 1306.62 589.848C1306.14 584.421 1305.55 578.939 1304.85 573.835C1304.15 567.548 1303.29 561.261 1302.32 555.242C1301.52 549.654 1300.55 544.227 1299.58 538.853C1298.72 533.802 1297.7 528.751 1296.79 524.506C1296.14 520.798 1295.34 517.091 1294.43 513.061C1293.78 509.89 1293.08 506.666 1292.28 503.603C1291.85 501.669 1291.36 499.842 1290.99 498.499C1290.34 495.489 1289.59 492.588 1288.78 489.686C1288.14 487.214 1287.49 484.796 1286.9 482.485C1286.69 481.679 1286.47 480.927 1286.26 480.229C1285.24 476.414 1284.16 472.706 1283.09 469.106C1282.71 467.708 1282.28 466.365 1281.85 465.021C1281.26 463.087 1280.67 461.153 1280.08 459.218L1280.02 457.498L1278.79 455.188C1278.41 454.113 1277.98 453.039 1277.44 451.964L1256.22 462.765H1241.5V466.15L1241.98 468.299L1242.89 470.019C1243.54 471.954 1244.18 473.942 1244.88 476.36C1245.63 478.67 1246.33 481.035 1247.03 483.453C1247.68 485.763 1248.32 488.181 1249.02 490.761C1249.56 492.695 1250.15 494.737 1250.79 497.048C1250.9 497.585 1251.06 498.176 1251.17 498.713L1251.44 499.788C1252.08 502.152 1252.73 504.463 1253.21 506.881L1253.43 507.634C1253.8 509.084 1254.18 510.535 1254.5 512.039L1254.77 513.114C1255.47 515.747 1256 518.434 1256.6 521.121L1256.86 522.249C1257.56 525.258 1258.15 528.375 1258.85 532.083C1259.82 536.489 1260.68 541.056 1261.49 545.624C1262.4 550.621 1263.31 555.672 1264.06 560.992C1264.98 566.688 1265.78 572.491 1266.48 578.617C1267.13 583.507 1267.67 588.397 1268.15 593.716C1268.58 597.693 1268.95 601.777 1269.28 606.344C1269.49 608.547 1269.6 610.751 1269.76 613.169C1269.92 615.103 1270.03 617.091 1270.14 619.778C1270.46 623.862 1270.67 627.946 1270.73 632.513C1271.05 639.929 1271.21 647.398 1271.21 654.867C1271.21 828.162 1198.35 992.913 1070.78 1109.52C1066.7 1113.28 1062.61 1116.93 1058.42 1120.53L1083.73 1149.82C1087.76 1146.38 1091.68 1142.83 1095.61 1139.29C1231.99 1015.27 1309.9 839.608 1309.9 654.867C1309.9 646.914 1309.74 638.908 1309.42 631.385V631.385ZM1245.85 372.168L1241.07 360.507H1240.15C1239.72 359.701 1239.29 358.895 1238.86 358.035C1238.49 357.229 1238.06 356.423 1237.63 355.617C1235.16 350.942 1232.68 346.267 1230.37 342.022C1227.69 336.864 1224.73 331.705 1221.94 326.977C1220.54 324.612 1219.14 322.14 1217.69 319.776C1216.83 318.218 1215.92 316.767 1214.9 315.155C1213.45 312.629 1211.94 310.158 1210.65 308.277C1207.43 302.904 1203.99 297.637 1200.44 292.318L1198.4 289.308C1196.41 286.353 1194.37 283.344 1192.44 280.604C1187.92 274.209 1183.41 267.868 1178.79 261.796C1175.67 257.605 1172.45 253.413 1169.55 249.921C1165.84 245.031 1161.91 240.195 1158.26 235.949C1154.61 231.489 1150.9 227.084 1147.08 222.838C1141.5 216.444 1136.5 210.909 1131.98 206.234C1129.4 203.44 1126.83 200.699 1124.03 197.905C1121.88 195.541 1119.52 193.23 1117.37 191.081C1114.14 187.91 1110.92 184.74 1107.64 181.785C1106.57 180.603 1105.49 179.582 1104.42 178.668C1100.66 175.014 1097.27 171.844 1094.05 169.104C1093.99 169.05 1093.99 169.05 1093.94 168.996C1092.11 167.223 1090.23 165.503 1088.35 163.945L1083.62 159.753L1057.62 188.341L1063.42 193.553C1064.71 194.628 1065.94 195.756 1067.18 196.992L1068.42 198.12C1069.54 199.034 1070.67 200.001 1071.75 201.076C1073.79 202.849 1075.83 204.837 1077.82 206.772L1078.95 207.739C1079.27 208.007 1079.54 208.33 1079.86 208.706L1081.1 209.888C1084.11 212.629 1087.01 215.477 1090.23 218.701C1092.11 220.528 1093.99 222.355 1095.66 224.235L1096.57 225.203C1099.04 227.567 1101.25 229.931 1103.77 232.672C1108.61 237.723 1113.34 242.989 1118.07 248.416C1121.61 252.392 1125 256.369 1128.6 260.775C1132.15 264.913 1135.58 269.104 1139.18 273.887C1142.14 277.433 1144.93 281.14 1147.84 285.009C1152.24 290.813 1156.49 296.778 1160.84 302.904C1162.72 305.59 1164.49 308.277 1166.32 310.964L1168.36 313.973C1171.53 318.701 1174.65 323.43 1177.93 328.911C1179.16 330.792 1180.35 332.673 1181.47 334.607L1182.01 335.574C1182.71 336.649 1183.41 337.724 1184.05 338.906L1184.59 339.765C1185.83 341.807 1187.12 344.01 1188.46 346.375C1191.09 350.835 1193.67 355.402 1196.31 360.346C1198.51 364.376 1200.66 368.406 1202.75 372.383C1202.97 372.759 1203.13 373.135 1203.34 373.511C1205.06 376.842 1206.73 380.228 1208.34 383.667C1208.83 384.634 1209.31 385.601 1209.74 386.568L1215.38 399.196H1228.06V381.302L1228.49 381.141L1246.6 373.834C1246.39 373.296 1246.12 372.705 1245.85 372.168V372.168ZM999.796 98.1735C896.518 33.9065 777.603 -0.000316574 654.926 -0.000316574V38.6888C768.629 38.6888 878.947 69.6398 975.132 128.372C980.398 131.596 985.664 134.874 990.823 138.26L1011.94 105.857C1007.91 103.224 1003.88 100.645 999.796 98.1735" fill="white"/>
<path d="M1202.54 447.45C1199.91 451.91 1197.22 456.37 1194.48 460.776C1154.39 525.097 1103.24 580.981 1042.35 626.924C983.891 670.987 919.194 703.819 849.661 724.722C844.234 726.334 838.753 727.892 833.272 729.396C829.027 730.525 824.728 731.653 820.429 732.728L823.976 746.968L829.779 770.289C833.326 769.429 836.872 768.516 840.365 767.495C845.792 766.151 851.166 764.647 856.539 762.981C861.966 761.476 867.34 759.811 872.66 758.038C942.085 735.791 1006.84 702.153 1065.62 657.768C1130.26 609.03 1184.54 549.815 1227.04 481.571C1230.05 476.789 1233.01 471.953 1235.85 467.063L1202.54 447.45ZM1245.42 371.468C1245.15 370.77 1244.83 370.125 1244.51 369.48C1243.05 366.471 1241.66 363.515 1240.15 360.506C1239.72 359.7 1239.29 358.894 1238.86 358.035C1238.49 357.229 1238.06 356.423 1237.63 355.617C1235.16 350.942 1232.68 346.267 1230.37 342.022C1227.69 336.863 1224.73 331.705 1221.94 326.976C1220.54 324.612 1219.14 322.14 1217.69 319.775C1216.83 318.217 1215.92 316.766 1214.9 315.154C1213.45 312.629 1211.94 310.157 1210.65 308.276C1207.43 302.903 1203.99 297.637 1200.44 292.317L1198.4 289.308C1196.41 286.352 1194.37 283.343 1192.44 280.603C1187.92 274.208 1183.41 267.868 1178.79 261.796C1175.67 257.604 1172.45 253.413 1169.55 249.92C1165.84 245.03 1161.91 240.194 1158.26 235.949C1154.61 231.489 1150.9 227.083 1147.08 222.838C1141.5 216.443 1136.5 210.909 1131.98 206.234C1129.4 203.439 1126.83 200.699 1124.03 197.905C1121.88 195.54 1119.52 193.23 1117.37 191.08C1114.14 187.91 1110.92 184.74 1107.64 181.784C1106.57 180.602 1105.49 179.581 1104.42 178.668C1100.66 175.014 1097.27 171.843 1094.05 169.103C1093.99 169.049 1093.99 169.049 1093.94 168.995C1092.11 167.222 1090.23 165.502 1088.35 163.944L1083.62 159.753L1057.62 188.34L1063.42 193.552C1064.71 194.627 1065.94 195.755 1067.18 196.991L1068.42 198.12C1069.54 199.033 1070.67 200.001 1071.75 201.075C1073.79 202.849 1075.83 204.836 1077.82 206.771L1078.95 207.738C1079.27 208.007 1079.54 208.329 1079.86 208.705L1081.1 209.887C1084.11 212.628 1087.01 215.476 1090.23 218.7C1092.11 220.527 1093.99 222.354 1095.66 224.235L1096.57 225.202C1099.04 227.566 1101.25 229.931 1103.77 232.671C1108.61 237.722 1113.34 242.988 1118.07 248.416C1121.61 252.392 1125 256.368 1128.6 260.775C1132.15 264.912 1135.58 269.104 1139.18 273.886C1142.14 277.433 1144.93 281.14 1147.84 285.009C1152.24 290.812 1156.49 296.777 1160.84 302.903C1162.72 305.59 1164.49 308.276 1166.32 310.963L1168.36 313.972C1171.53 318.701 1174.65 323.429 1177.93 328.91C1179.16 330.791 1180.35 332.672 1181.47 334.607L1182.01 335.574C1182.71 336.648 1183.41 337.723 1184.05 338.905L1184.59 339.765C1185.83 341.807 1187.12 344.01 1188.46 346.374C1191.09 350.834 1193.67 355.402 1196.31 360.345C1198.51 364.375 1200.66 368.406 1202.75 372.382C1202.97 372.758 1203.13 373.134 1203.34 373.51C1205.06 376.842 1206.73 380.227 1208.34 383.666C1208.88 384.634 1209.31 385.601 1209.79 386.568L1212.05 390.974L1228.06 381.356L1228.49 381.141L1234.83 377.326L1245.79 372.221L1245.42 371.468ZM999.796 98.1729C896.518 33.906 777.603 -0.000879347 654.926 -0.000879347V38.6883C768.629 38.6883 878.947 69.6392 975.132 128.372C980.398 131.596 985.664 134.874 990.823 138.259L1011.94 105.857C1007.91 103.224 1003.88 100.645 999.796 98.1729" fill="white"/>
<path d="M990.779 1149.87C933.321 1100.06 885.411 1041.28 848.371 975.181L882.128 956.266C916.969 1018.44 962.053 1073.73 1016.12 1120.64L990.779 1149.87" fill="white"/>
<path d="M766.017 695.33C765.168 682.434 764.738 668.839 764.738 654.868C764.738 466.957 845.674 287.804 986.787 163.408L1012.38 192.425C879.586 309.513 803.427 478.08 803.427 654.868C803.427 667.979 803.83 680.714 804.626 692.751L766.017 695.33" fill="white"/>
<path d="M1083.75 1149.82L1058.41 1120.53C1193.63 1003.39 1271.18 833.698 1271.18 654.868C1271.18 647.399 1271.03 639.93 1270.73 632.514C1270.65 627.947 1270.43 623.863 1270.15 619.779C1270.04 617.092 1269.9 615.104 1269.76 613.17C1269.61 610.752 1269.47 608.548 1269.26 606.345C1268.93 601.778 1268.56 597.694 1268.12 593.664C1267.65 588.398 1267.14 583.508 1266.48 578.618C1265.77 572.492 1264.96 566.689 1264.06 560.993C1263.29 555.62 1262.39 550.622 1261.5 545.625C1260.69 541.057 1259.81 536.49 1258.85 532.084C1258.16 528.322 1257.54 525.259 1256.83 522.25L1256.59 521.122C1256.01 518.435 1255.45 515.748 1254.75 513.115L1254.48 512.04C1254.17 510.536 1253.79 509.085 1253.42 507.635L1253.23 506.882C1252.69 504.464 1252.09 502.153 1251.42 499.789L1251.15 498.714C1250.55 496.081 1249.82 493.395 1249.02 490.762C1247.61 485.496 1246.3 480.928 1244.85 476.361C1244.15 473.943 1243.55 471.955 1242.87 470.02L1241.96 468.3L1241.47 466.151V462.766H1256.24L1277.44 451.965C1277.97 452.986 1278.42 454.061 1278.79 455.189L1280 457.499L1280.05 459.219C1280.68 461.154 1281.27 463.088 1281.85 465.022C1283.37 469.805 1284.85 474.964 1286.25 480.23C1287.09 483.024 1288 486.302 1288.77 489.687C1289.59 492.589 1290.33 495.49 1291 498.5C1291.36 499.843 1291.83 501.67 1292.25 503.604C1293.06 506.667 1293.75 509.891 1294.42 513.062C1295.35 517.092 1296.11 520.799 1296.79 524.507C1297.72 528.752 1298.7 533.803 1299.59 538.801C1300.56 544.228 1301.52 549.655 1302.32 555.243C1303.26 561.208 1304.15 567.549 1304.87 573.836C1305.56 578.94 1306.13 584.368 1306.62 589.849C1307.08 593.987 1307.48 598.554 1307.81 603.121C1308.02 605.27 1308.19 607.904 1308.36 610.59C1308.52 612.794 1308.69 615.265 1308.78 617.737C1309.08 621.821 1309.32 626.55 1309.41 631.386C1309.71 638.909 1309.87 646.915 1309.87 654.868C1309.87 844.875 1227.45 1025.32 1083.75 1149.82" fill="white"/>
<path d="M1037.25 1186.84C1023.92 1186.84 1013.12 1175.99 1013.12 1162.66C1013.12 1149.34 1023.92 1138.48 1037.25 1138.48C1050.57 1138.48 1061.43 1149.34 1061.43 1162.66C1061.43 1175.99 1050.57 1186.84 1037.25 1186.84ZM1095.6 1139.29C1090.66 1126.93 1081.9 1116.56 1070.78 1109.52C1061.11 1103.34 1049.61 1099.79 1037.25 1099.79C1024.89 1099.79 1013.39 1103.34 1003.72 1109.52C992.594 1116.56 983.835 1126.98 978.945 1139.34C976.044 1146.54 974.432 1154.39 974.432 1162.66C974.432 1168.79 975.291 1174.64 976.957 1180.23C980.665 1193.07 988.403 1204.25 998.72 1212.26C1009.31 1220.59 1022.69 1225.53 1037.25 1225.53C1071.96 1225.53 1100.12 1197.32 1100.12 1162.66C1100.12 1154.39 1098.51 1146.49 1095.6 1139.29" fill="white"/>
<path d="M1267.12 420.745C1267.12 434.072 1256.26 444.926 1242.94 444.926C1229.61 444.926 1218.76 434.072 1218.76 420.745C1218.76 407.419 1229.61 396.565 1242.94 396.565C1256.26 396.565 1267.12 407.419 1267.12 420.745ZM1242.94 357.876C1241.54 357.876 1240.2 357.929 1238.85 358.037C1225.15 358.896 1212.69 364.163 1202.74 372.384C1188.88 383.991 1180.07 401.347 1180.07 420.745C1180.07 435.899 1185.5 449.87 1194.47 460.778C1202.8 470.773 1214.08 478.188 1227.03 481.573C1232.08 482.917 1237.46 483.615 1242.94 483.615C1244.34 483.615 1245.68 483.562 1247.02 483.454C1260.67 482.594 1273.14 477.328 1283.08 469.107C1296.94 457.554 1305.81 440.144 1305.81 420.745C1305.81 386.086 1277.6 357.876 1242.94 357.876" fill="white"/>
<path d="M1033.75 175.231C1020.37 175.231 1009.57 164.376 1009.57 151.05C1009.57 137.724 1020.37 126.869 1033.75 126.869C1047.08 126.869 1057.88 137.724 1057.88 151.05C1057.88 164.376 1047.08 175.231 1033.75 175.231ZM1033.75 88.1802C1021.23 88.1802 1009.57 91.8345 999.79 98.1752C988.667 105.322 979.962 115.907 975.126 128.374C972.385 135.413 970.881 143.044 970.881 151.05C970.881 159.11 972.385 166.794 975.18 173.887C980.016 186.3 988.667 196.778 999.737 203.871C1009.52 210.266 1021.23 213.92 1033.75 213.92C1047.99 213.92 1061.21 209.138 1071.74 201.078C1082.22 193.071 1090.12 181.894 1093.93 168.998C1095.65 163.302 1096.57 157.283 1096.57 151.05C1096.57 116.391 1068.41 88.1802 1033.75 88.1802" fill="white"/>
</svg>
